<?xml version="1.0" encoding="utf-8"?>
<!-- Generator: Adobe Illustrator 16.0.0, SVG Export Plug-In . SVG Version: 6.00 Build 0)  -->
<!DOCTYPE svg PUBLIC "-//W3C//DTD SVG 1.1//EN" "http://www.w3.org/Graphics/SVG/1.1/DTD/svg11.dtd">
<svg version="1.1" id="Layer_1" xmlns="http://www.w3.org/2000/svg" xmlns:xlink="http://www.w3.org/1999/xlink" x="0px" y="0px"
	 width="150px" height="150px" viewBox="0 0 150 150" enable-background="new 0 0 150 150" xml:space="preserve">
<path fill="#FFFFFF" d="M35.409,91.555c0,0,11.331-82.673,39.591-82.673c28.262,0,39.592,82.673,39.592,82.673H35.409z"/>
<path fill="#333333" d="M65.076,52.221c0,0,2.84-20.725,9.925-20.725s9.925,20.725,9.925,20.725H65.076z"/>
<rect x="35.409" y="93.62" fill="#CC3333" width="11.531" height="22.625"/>
<rect x="48.939" y="93.62" fill="#F26739" width="11.53" height="22.625"/>
<rect x="62.47" y="93.62" fill="#FFCD05" width="11.53" height="22.625"/>
<rect x="76" y="93.62" fill="#EFEFF0" width="11.531" height="22.625"/>
<rect x="89.531" y="93.62" fill="#52BA65" width="11.529" height="22.625"/>
<rect x="103.063" y="93.62" fill="#3399CC" width="11.529" height="22.625"/>
<g>
	<path fill="#FFFFFF" d="M27.215,134.864v3.255c0,3.921-1.96,6.16-5.741,6.16c-3.781,0-5.741-2.239-5.741-6.16v-12.741
		c0-3.92,1.96-6.16,5.741-6.16c3.781,0,5.741,2.24,5.741,6.16v2.38h-3.641v-2.625c0-1.75-0.77-2.415-1.995-2.415
		s-1.995,0.665-1.995,2.415v13.231c0,1.75,0.77,2.381,1.995,2.381s1.995-0.631,1.995-2.381v-3.5H27.215z"/>
	<path fill="#FFFFFF" d="M33.234,119.497v18.901c0,1.75,0.77,2.381,1.995,2.381s1.995-0.631,1.995-2.381v-18.901h3.641v18.657
		c0,3.921-1.96,6.16-5.741,6.16c-3.781,0-5.741-2.239-5.741-6.16v-18.657H33.234z"/>
	<path fill="#FFFFFF" d="M55.004,125.133v0.875c0,2.521-0.77,4.096-2.485,4.9v0.07c2.065,0.806,2.87,2.625,2.87,5.215v1.996
		c0,3.779-1.995,5.811-5.846,5.811h-6.055v-24.503h5.811C53.289,119.497,55.004,121.354,55.004,125.133z M47.338,122.998v6.477
		h1.505c1.435,0,2.31-0.631,2.31-2.592v-1.365c0-1.75-0.595-2.52-1.96-2.52H47.338z M47.338,132.975v7.525h2.205
		c1.295,0,1.996-0.596,1.996-2.416v-2.135c0-2.275-0.735-2.977-2.485-2.977h-1.716V132.975z"/>
	<path fill="#FFFFFF" d="M61.548,129.823h5.286v3.501h-5.286v7.176h6.651v3.5H57.698v-24.503h10.501v3.501h-6.651V129.823z"/>
	<path fill="#FFFFFF" d="M70.577,119.497h6.091c3.852,0,5.74,2.136,5.74,6.056v12.393c0,3.921-1.891,6.056-5.74,6.056h-6.091
		V119.497z M74.428,122.998V140.5h2.169c1.227,0,1.961-0.631,1.961-2.381v-12.741c0-1.75-0.734-2.38-1.961-2.38H74.428
		L74.428,122.998z"/>
	<path fill="#FFFFFF" d="M88.708,129.823h5.285v3.501h-5.285v7.176h6.649v3.5h-10.5v-24.503h10.5v3.501h-6.649V129.823z"/>
	<path fill="#FFFFFF" d="M109.148,125.553v3.187c0,3.921-1.892,6.056-5.741,6.056h-1.819V144h-3.852v-24.503h5.671
		C107.258,119.497,109.148,121.633,109.148,125.553z M101.588,122.998v8.296h1.819c1.226,0,1.891-0.562,1.891-2.312v-3.676
		c0-1.75-0.665-2.31-1.891-2.31L101.588,122.998L101.588,122.998z"/>
	<path fill="#FFFFFF" d="M110.617,125.378c0-3.92,2.064-6.16,5.846-6.16s5.846,2.24,5.846,6.16v12.741
		c0,3.921-2.064,6.16-5.846,6.16s-5.846-2.239-5.846-6.16V125.378z M114.468,138.364c0,1.75,0.771,2.415,1.995,2.415
		c1.227,0,1.995-0.665,1.995-2.415v-13.231c0-1.75-0.771-2.415-1.995-2.415s-1.995,0.665-1.995,2.415V138.364z"/>
	<path fill="#FFFFFF" d="M123.672,119.497h11.901v3.501h-4.025V144h-3.851v-21.002h-4.025V119.497z"/>
</g>
</svg>
