<?xml version="1.0" encoding="utf-8"?>
<!-- Generator: Adobe Illustrator 16.0.0, SVG Export Plug-In . SVG Version: 6.00 Build 0)  -->
<!DOCTYPE svg PUBLIC "-//W3C//DTD SVG 1.1//EN" "http://www.w3.org/Graphics/SVG/1.1/DTD/svg11.dtd">
<svg version="1.1" id="Layer_1" xmlns="http://www.w3.org/2000/svg" xmlns:xlink="http://www.w3.org/1999/xlink" x="0px" y="0px"
	 width="150px" height="150px" viewBox="0 0 150 150" enable-background="new 0 0 150 150" xml:space="preserve">
<g>
	<g>
		<path fill="#FFFFFF" d="M79.53,42.598v3.556L59.426,57.815H20.423c-5.961,0-10.793,4.833-10.793,10.793v13.413
			c0,5.961,4.833,10.793,10.793,10.793h40.932l18.175,10.444v3.687h7.056V42.598H79.53z M73.764,88.229H18.113V62.402h55.651V88.229
			z"/>
	</g>
</g>
<circle fill="#FFFFFF" cx="86.585" cy="75.315" r="12.283"/>
<rect x="92.968" y="45.861" transform="matrix(0.7071 -0.7071 0.7071 0.7071 -0.8227 93.237)" fill="#FFFFFF" width="38.333" height="3.5"/>
<rect x="102.036" y="73.021" fill="#FFFFFF" width="38.334" height="3.5"/>
<rect x="92.968" y="100.638" transform="matrix(0.7071 0.7071 -0.7071 0.7071 105.2456 -49.3026)" fill="#FFFFFF" width="38.334" height="3.5"/>
<rect x="15.703" y="60.41" fill="#FFFFFF" width="60.667" height="28.833"/>
<rect x="24.788" y="88.229" fill="none" stroke="#FFFFFF" stroke-width="3" stroke-linecap="round" stroke-linejoin="round" stroke-miterlimit="10" width="18.911" height="13.098"/>
</svg>
