<?xml version="1.0" encoding="utf-8"?>
<!-- Generator: Adobe Illustrator 16.0.0, SVG Export Plug-In . SVG Version: 6.00 Build 0)  -->
<!DOCTYPE svg PUBLIC "-//W3C//DTD SVG 1.1//EN" "http://www.w3.org/Graphics/SVG/1.1/DTD/svg11.dtd">
<svg version="1.1" id="Layer_1" xmlns="http://www.w3.org/2000/svg" xmlns:xlink="http://www.w3.org/1999/xlink" x="0px" y="0px"
	 width="32px" height="32px" viewBox="0 0 32 32" enable-background="new 0 0 32 32" xml:space="preserve">
<polygon fill="#FFFFFF" points="3.921,10.054 7.235,12.014 7.214,15.609 3.899,13.649 "/>
<polygon fill="#FFFFFF" points="8.194,12.581 11.508,14.54 11.486,18.136 8.172,16.177 "/>
<polygon fill="#FFFFFF" points="12.466,15.106 15.781,17.067 15.759,20.663 12.445,18.703 "/>
<polygon fill="#FFFFFF" points="3.893,14.689 7.208,16.648 7.186,20.245 3.872,18.286 "/>
<polygon fill="#FFFFFF" points="8.166,17.216 11.48,19.175 11.458,22.772 8.145,20.813 "/>
<polygon fill="#FFFFFF" points="12.438,19.742 15.753,21.702 15.731,25.299 12.417,23.34 "/>
<polygon fill="#FFFFFF" points="3.866,19.325 7.18,21.284 7.159,24.882 3.844,22.922 "/>
<polygon fill="#FFFFFF" points="8.139,21.853 11.453,23.812 11.431,27.408 8.117,25.448 "/>
<polygon fill="#FFFFFF" points="12.411,24.379 15.726,26.338 15.704,29.935 12.39,27.974 "/>
<g>
	<polygon fill="#FFFFFF" points="7.327,7.081 3.899,9.1 7.324,11.118 10.752,9.099 	"/>
	<polygon fill="#FFFFFF" points="15.167,6.497 11.742,4.478 8.317,6.497 11.742,8.515 	"/>
	<polygon fill="#FFFFFF" points="19.582,3.894 16.161,1.875 12.733,3.895 16.158,5.913 	"/>
	<polygon fill="#FFFFFF" points="11.744,9.683 8.316,11.702 11.744,13.721 15.17,11.702 	"/>
	<polygon fill="#FFFFFF" points="12.734,9.099 16.161,11.118 19.587,9.1 16.159,7.081 	"/>
	<polygon fill="#FFFFFF" points="20.576,8.516 24.005,6.497 20.576,4.478 17.148,6.497 	"/>
	<polygon fill="#FFFFFF" points="12.734,14.305 16.161,16.324 19.587,14.305 16.161,12.286 	"/>
	<polygon fill="#FFFFFF" points="17.15,11.702 20.576,13.721 24.005,11.703 20.576,9.684 	"/>
	<polygon fill="#FFFFFF" points="24.994,7.081 21.568,9.1 24.994,11.119 28.42,9.1 	"/>
</g>
<polygon fill="#FFFFFF" points="28.42,10.235 25.089,12.168 25.081,15.764 28.411,13.831 "/>
<polygon fill="#FFFFFF" points="24.126,12.728 20.796,14.658 20.786,18.255 24.118,16.323 "/>
<polygon fill="#FFFFFF" points="19.831,15.217 16.501,17.15 16.492,20.746 19.823,18.813 "/>
<polygon fill="#FFFFFF" points="28.409,14.872 25.079,16.803 25.069,20.399 28.401,18.469 "/>
<polygon fill="#FFFFFF" points="24.114,17.362 20.784,19.294 20.775,22.892 24.106,20.96 "/>
<polygon fill="#FFFFFF" points="19.821,19.853 16.49,21.785 16.482,25.382 19.813,23.451 "/>
<polygon fill="#FFFFFF" points="28.397,19.508 25.067,21.438 25.059,25.037 28.39,23.104 "/>
<polygon fill="#FFFFFF" points="24.104,21.999 20.772,23.931 20.765,27.527 24.095,25.595 "/>
<polygon fill="#FFFFFF" points="19.81,24.49 16.479,26.421 16.47,30.017 19.802,28.085 "/>
</svg>
