<?xml version="1.0" encoding="utf-8"?>
<!-- Generator: Adobe Illustrator 16.0.0, SVG Export Plug-In . SVG Version: 6.00 Build 0)  -->
<!DOCTYPE svg PUBLIC "-//W3C//DTD SVG 1.1//EN" "http://www.w3.org/Graphics/SVG/1.1/DTD/svg11.dtd">
<svg version="1.1" id="Layer_1" xmlns="http://www.w3.org/2000/svg" xmlns:xlink="http://www.w3.org/1999/xlink" x="0px" y="0px"
	 width="495.676px" height="534.392px" viewBox="42.185 28.297 495.676 534.392"
	 enable-background="new 42.185 28.297 495.676 534.392" xml:space="preserve">
<g id="Layer_5">
	
		<linearGradient id="SVGID_1_" gradientUnits="userSpaceOnUse" x1="560.6836" y1="85.311" x2="560.6836" y2="-359.6899" gradientTransform="matrix(1 0 0 -1 -290 197)">
		<stop  offset="0" style="stop-color:#58595B"/>
		<stop  offset="0" style="stop-color:#57585A"/>
		<stop  offset="0.0205" style="stop-color:#555557"/>
		<stop  offset="0.1565" style="stop-color:#494A4B"/>
		<stop  offset="0.3403" style="stop-color:#434244"/>
		<stop  offset="0.7796" style="stop-color:#414042"/>
	</linearGradient>
	<path fill="url(#SVGID_1_)" stroke="#414042" stroke-width="12" stroke-miterlimit="10" d="M493.185,544.689
		c0,6.627-5.372,12-12,12h-421c-6.627,0-12-5.373-12-12v-421c0-6.627,5.373-12,12-12h421c6.628,0,12,5.373,12,12V544.689z"/>
	<g>
		<path fill="none" d="M237.277,322.816"/>
	</g>
	<g id="Layer_7">
		<g>
			<path fill="none" d="M285.594,288.392"/>
		</g>
		<g>
			<path fill="#F26739" d="M272.52,265.26c0,0-0.217,0.176-0.637,0.518c-0.414,0.345-1.029,0.856-1.831,1.524
				c-1.605,1.363-3.961,3.377-6.894,6.033c-2.942,2.642-6.466,5.915-10.432,9.755c-3.987,3.818-8.354,8.266-13.082,13.153
				c-4.667,4.944-9.714,10.321-14.829,16.208c-2.606,2.9-5.154,5.992-7.826,9.097c-2.599,3.164-5.294,6.366-7.934,9.704
				c-2.641,3.337-5.344,6.717-7.966,10.227c-1.318,1.75-2.675,3.487-3.982,5.275c-1.304,1.79-2.614,3.59-3.93,5.396
				c-0.658,0.904-1.316,1.81-1.977,2.717l-1.925,2.767c-1.286,1.849-2.576,3.701-3.868,5.558c-2.538,3.746-5.04,7.539-7.532,11.338
				c-2.401,3.855-4.897,7.656-7.213,11.546c-1.161,1.942-2.319,3.883-3.474,5.815l-1.725,2.899c-0.551,0.979-1.101,1.955-1.65,2.929
				c-2.184,3.905-4.424,7.741-6.431,11.644c-2.045,3.88-4.122,7.687-5.966,11.529c-1.875,3.829-3.804,7.556-5.47,11.308
				c-0.857,1.863-1.706,3.709-2.544,5.531c-0.849,1.817-1.667,3.622-2.411,5.431c-1.523,3.602-3.005,7.104-4.439,10.494
				c-1.333,3.431-2.62,6.745-3.856,9.927c-0.309,0.796-0.615,1.583-0.917,2.362c-0.279,0.786-0.556,1.564-0.829,2.335
				c-0.543,1.541-1.073,3.047-1.589,4.515c-0.517,1.468-1.021,2.898-1.51,4.289c-0.498,1.388-0.967,2.74-1.367,4.069
				c-0.834,2.646-1.615,5.124-2.337,7.415c-0.712,2.293-1.418,4.386-1.919,6.314c-2.134,7.684-3.354,12.072-3.354,12.072
				s1.129-4.415,3.105-12.144c0.462-1.94,1.125-4.048,1.79-6.356c0.676-2.309,1.406-4.804,2.187-7.471
				c0.374-1.34,0.815-2.702,1.285-4.104c0.461-1.402,0.937-2.845,1.423-4.325c0.487-1.479,0.987-3,1.499-4.555
				c0.258-0.776,0.519-1.563,0.782-2.357c0.287-0.785,0.577-1.581,0.871-2.385c1.173-3.214,2.395-6.563,3.66-10.027
				c1.367-3.428,2.78-6.971,4.233-10.612c0.709-1.829,1.493-3.655,2.307-5.496c0.803-1.846,1.616-3.714,2.438-5.604
				c1.595-3.8,3.453-7.576,5.256-11.459c1.773-3.897,3.778-7.762,5.752-11.7c1.936-3.961,4.104-7.859,6.219-11.828
				c0.532-0.99,1.064-1.983,1.599-2.979l1.673-2.949c1.121-1.967,2.245-3.939,3.372-5.918c2.249-3.957,4.678-7.828,7.014-11.758
				c2.427-3.871,4.866-7.738,7.342-11.56c1.262-1.896,2.521-3.786,3.777-5.673l1.881-2.824c0.646-0.928,1.29-1.852,1.934-2.773
				c1.287-1.848,2.569-3.687,3.844-5.516c1.28-1.827,2.609-3.604,3.9-5.395c2.568-3.588,5.22-7.049,7.812-10.465
				c2.591-3.418,5.239-6.701,7.794-9.945c2.628-3.183,5.134-6.354,7.702-9.332c5.037-6.045,10.017-11.573,14.628-16.664
				c4.672-5.036,8.995-9.621,12.95-13.568c3.933-3.969,7.437-7.359,10.372-10.106c2.923-2.758,5.287-4.865,6.909-6.301
				c0.825-0.716,1.458-1.265,1.885-1.635c0.429-0.364,0.65-0.551,0.65-0.551c1.264-1.071,3.157-0.915,4.229,0.349
				c1.071,1.264,0.916,3.157-0.349,4.229c-0.012,0.01-0.023,0.02-0.036,0.029L272.52,265.26z"/>
		</g>
		<g>
			<path fill="#F26739" d="M315.134,301.195c0,0-0.929,0.63-2.668,1.811c-1.742,1.188-4.288,2.961-7.512,5.24
				c-3.222,2.283-7.117,5.085-11.55,8.352c-4.43,3.27-9.41,6.983-14.776,11.127c-5.381,4.123-11.139,8.683-17.194,13.551
				c-6.022,4.906-12.352,10.111-18.772,15.646c-1.607,1.382-3.228,2.774-4.86,4.177c-1.613,1.426-3.237,2.86-4.872,4.305
				c-3.288,2.867-6.533,5.859-9.826,8.854c-3.303,2.983-6.525,6.104-9.82,9.174c-3.242,3.125-6.482,6.278-9.7,9.453
				c-6.376,6.408-12.683,12.895-18.65,19.496c-1.493,1.65-2.98,3.294-4.46,4.929c-1.474,1.642-2.878,3.327-4.308,4.975
				c-1.42,1.656-2.831,3.302-4.232,4.936c-1.357,1.671-2.705,3.329-4.041,4.975c-1.322,1.655-2.694,3.252-3.942,4.917
				c-1.262,1.654-2.512,3.296-3.749,4.918c-2.523,3.209-4.77,6.508-7.03,9.67c-2.304,3.134-4.281,6.355-6.302,9.403
				c-2.059,3.027-3.773,6.117-5.523,9.024c-0.844,1.471-1.758,2.863-2.493,4.311c-0.759,1.436-1.5,2.838-2.223,4.203
				c-0.723,1.367-1.427,2.699-2.112,3.995c-0.651,1.312-1.218,2.616-1.803,3.864c-0.577,1.253-1.135,2.465-1.674,3.635
				c-0.527,1.176-1.096,2.284-1.495,3.41c-0.863,2.227-1.655,4.271-2.371,6.117c-0.35,0.926-0.716,1.791-0.997,2.627
				c-0.261,0.843-0.505,1.633-0.733,2.368c-0.455,1.471-0.842,2.722-1.156,3.734c-0.628,2.03-0.963,3.112-0.963,3.112
				s0.313-1.089,0.898-3.131c0.293-1.021,0.655-2.28,1.08-3.762c0.213-0.741,0.441-1.537,0.685-2.388
				c0.264-0.843,0.613-1.715,0.943-2.649c0.679-1.865,1.431-3.931,2.25-6.178c0.377-1.14,0.923-2.261,1.427-3.448
				c0.516-1.186,1.051-2.411,1.603-3.68c0.561-1.264,1.104-2.587,1.729-3.915c0.66-1.313,1.338-2.663,2.035-4.05
				s1.412-2.81,2.144-4.266c0.709-1.469,1.596-2.883,2.413-4.377c1.695-2.953,3.355-6.095,5.357-9.175
				c1.964-3.102,3.886-6.383,6.133-9.574c2.202-3.222,4.394-6.585,6.86-9.859c1.208-1.654,2.43-3.329,3.664-5.019
				c1.22-1.7,2.563-3.33,3.857-5.021c1.309-1.681,2.628-3.375,3.957-5.082c1.374-1.67,2.757-3.353,4.148-5.045
				c1.402-1.685,2.779-3.408,4.225-5.087c1.453-1.674,2.912-3.354,4.378-5.044c5.859-6.759,12.059-13.403,18.333-19.976
				c3.167-3.258,6.357-6.492,9.549-9.699c3.245-3.152,6.419-6.355,9.675-9.422c3.245-3.076,6.445-6.15,9.688-9.1
				c1.612-1.484,3.215-2.961,4.806-4.427c1.611-1.442,3.21-2.877,4.796-4.298c6.337-5.693,12.588-11.057,18.539-16.111
				c5.983-5.02,11.677-9.723,17.001-13.979c5.309-4.276,10.24-8.116,14.629-11.498c4.393-3.379,8.258-6.28,11.456-8.65
				c3.204-2.364,5.734-4.206,7.479-5.448c1.75-1.242,2.684-1.903,2.684-1.903c1.352-0.959,3.225-0.64,4.184,0.712
				c0.958,1.352,0.641,3.225-0.712,4.184c-0.013,0.008-0.024,0.019-0.039,0.026L315.134,301.195z"/>
		</g>
		<g>
			<path fill="#F9EF6B" d="M293.843,281.02c0,0-0.421,0.282-1.211,0.81c-0.776,0.521-1.917,1.299-3.373,2.32
				c-1.462,1-3.205,2.275-5.221,3.709c-1.991,1.47-4.257,3.107-6.682,4.956c-2.425,1.852-5.062,3.846-7.787,6.035
				c-2.759,2.15-5.601,4.5-8.54,6.937c-2.963,2.409-5.893,5.048-8.945,7.649c-2.975,2.686-6.012,5.402-8.984,8.188
				c-1.468,1.412-2.937,2.823-4.399,4.229c-0.732,0.703-1.462,1.404-2.191,2.104c-0.721,0.707-1.412,1.438-2.116,2.153
				c-2.778,2.89-5.621,5.644-8.136,8.52c-2.545,2.85-5.113,5.52-7.3,8.26c-1.122,1.346-2.212,2.657-3.268,3.926
				c-1.062,1.264-2.087,2.485-2.982,3.728c-1.842,2.447-3.53,4.688-5.027,6.679c-1.471,2.008-2.609,3.856-3.622,5.332
				c-1.986,2.978-3.121,4.678-3.121,4.678s1.056-1.752,2.903-4.816c0.944-1.52,2.002-3.428,3.383-5.506
				c1.409-2.063,2.998-4.389,4.731-6.926c0.843-1.287,1.814-2.561,2.82-3.877c1.001-1.32,2.036-2.688,3.1-4.092
				c2.075-2.856,4.525-5.651,6.955-8.636c2.402-3.013,5.126-5.907,7.792-8.946c0.675-0.752,1.338-1.521,2.031-2.266
				c0.7-0.738,1.402-1.479,2.106-2.22c1.408-1.483,2.822-2.974,4.236-4.462c2.864-2.943,5.796-5.819,8.672-8.664
				c2.952-2.762,5.789-5.562,8.663-8.125c2.851-2.592,5.61-5.096,8.295-7.393c2.65-2.34,5.22-4.476,7.585-6.457
				c2.365-1.982,4.581-3.744,6.53-5.325c1.977-1.549,3.682-2.919,5.125-4.008c1.426-1.1,2.569-1.96,3.359-2.544
				c0.778-0.574,1.193-0.88,1.193-0.88c1.334-0.984,3.213-0.7,4.196,0.634c0.983,1.333,0.7,3.212-0.634,4.196
				c-0.033,0.025-0.067,0.049-0.104,0.073L293.843,281.02z"/>
		</g>
		<g>
			<path fill="#CC3333" d="M260.676,241.182c0,0-0.255,0.185-0.75,0.544c-0.487,0.364-1.208,0.905-2.15,1.61
				c-1.883,1.455-4.653,3.601-8.076,6.482c-3.433,2.867-7.547,6.427-12.129,10.671c-4.612,4.211-9.656,9.142-15.045,14.635
				c-2.671,2.771-5.463,5.648-8.251,8.723c-2.844,3.024-5.652,6.27-8.576,9.576c-5.75,6.692-11.705,13.858-17.509,21.548
				c-5.901,7.619-11.583,15.803-17.251,24.189c-1.368,2.129-2.742,4.266-4.12,6.408c-1.363,2.154-2.792,4.277-4.081,6.49
				c-2.612,4.405-5.363,8.758-7.816,13.279l-3.773,6.729c-1.246,2.248-2.389,4.55-3.585,6.815c-1.18,2.275-2.356,4.548-3.53,6.812
				c-1.104,2.301-2.205,4.594-3.302,6.877c-1.078,2.291-2.232,4.54-3.235,6.843c-1.012,2.298-2.018,4.586-3.019,6.859
				c-0.977,2.282-2.049,4.512-2.93,6.8c-0.911,2.275-1.814,4.537-2.71,6.777c-0.879,2.248-1.824,4.451-2.628,6.684
				c-0.803,2.231-1.598,4.442-2.385,6.63c-0.787,2.188-1.565,4.353-2.334,6.49c-0.695,2.163-1.381,4.3-2.058,6.407
				c-0.674,2.109-1.339,4.19-1.994,6.24c-0.321,1.027-0.667,2.038-0.96,3.058c-0.285,1.02-0.567,2.031-0.848,3.034
				c-1.121,4.017-2.205,7.896-3.245,11.62c-0.938,3.751-1.771,7.363-2.6,10.79c-0.41,1.715-0.809,3.387-1.197,5.012
				c-0.392,1.623-0.66,3.224-0.981,4.763c-0.613,3.084-1.187,5.97-1.717,8.638c-0.265,1.335-0.52,2.615-0.763,3.839
				c-0.219,1.229-0.388,2.405-0.57,3.52c-1.414,8.922-2.222,14.02-2.222,14.02s0.715-5.112,1.968-14.061
				c0.162-1.118,0.31-2.3,0.506-3.532c0.221-1.228,0.453-2.514,0.693-3.854c0.482-2.682,1.004-5.579,1.562-8.678
				c0.293-1.546,0.534-3.154,0.896-4.788c0.359-1.633,0.729-3.313,1.107-5.037c0.768-3.446,1.537-7.081,2.409-10.857
				c0.975-3.751,1.99-7.659,3.04-11.704c0.263-1.012,0.528-2.031,0.795-3.06c0.275-1.026,0.604-2.047,0.907-3.081
				c0.62-2.068,1.248-4.167,1.886-6.295c0.641-2.129,1.291-4.284,1.948-6.468c0.732-2.159,1.474-4.345,2.224-6.555
				s1.508-4.443,2.273-6.699c0.768-2.255,1.675-4.481,2.517-6.757c0.859-2.268,1.726-4.555,2.599-6.858
				c0.844-2.314,1.879-4.571,2.819-6.885c0.964-2.303,1.934-4.62,2.909-6.949c0.966-2.333,2.084-4.612,3.126-6.937
				c1.062-2.316,2.127-4.643,3.196-6.977c1.139-2.299,2.281-4.604,3.426-6.916c1.162-2.302,2.271-4.639,3.483-6.922l3.674-6.843
				c2.388-4.601,5.077-9.028,7.628-13.516c1.259-2.255,2.659-4.417,3.992-6.612c1.35-2.186,2.695-4.363,4.036-6.534
				c5.556-8.556,11.139-16.913,16.953-24.709c5.717-7.866,11.596-15.21,17.285-22.077c2.893-3.395,5.673-6.727,8.493-9.836
				c2.763-3.161,5.534-6.124,8.187-8.976c5.354-5.659,10.374-10.747,14.975-15.105c4.571-4.39,8.688-8.086,12.135-11.073
				c3.434-3,6.236-5.254,8.155-6.792c0.981-0.763,1.734-1.348,2.241-1.742c0.511-0.385,0.774-0.583,0.774-0.583
				c1.324-0.997,3.205-0.731,4.202,0.592s0.731,3.205-0.592,4.202c-0.01,0.007-0.021,0.015-0.031,0.022L260.676,241.182z"/>
		</g>
		<g>
			<path fill="#CC3333" d="M334.252,311.864c0,0-1.005,0.631-2.89,1.813c-1.887,1.19-4.643,2.973-8.135,5.268
				c-3.486,2.304-7.706,5.127-12.505,8.433c-4.799,3.304-10.185,7.074-15.996,11.28c-5.822,4.191-12.059,8.83-18.604,13.805
				c-6.517,5.012-13.366,10.331-20.304,16.016c-1.737,1.418-3.488,2.85-5.251,4.289c-1.745,1.465-3.501,2.939-5.269,4.424
				c-3.559,2.941-7.048,6.048-10.618,9.119c-3.55,3.096-7.048,6.304-10.604,9.478c-3.472,3.263-7.014,6.481-10.454,9.806
				c-3.411,3.354-6.913,6.618-10.218,10.051c-1.671,1.698-3.34,3.394-5.003,5.082c-1.672,1.684-3.251,3.441-4.873,5.149
				c-1.609,1.719-3.212,3.432-4.807,5.136c-1.549,1.745-3.091,3.481-4.623,5.207c-1.517,1.739-3.091,3.413-4.534,5.175
				c-1.461,1.747-2.911,3.481-4.35,5.202c-5.738,6.896-10.993,13.803-15.763,20.501c-4.742,6.72-8.978,13.248-12.598,19.449
				c-1.922,3.037-3.428,6.135-5.001,9.005c-0.765,1.446-1.54,2.842-2.239,4.226c-0.653,1.405-1.287,2.771-1.901,4.095
				c-0.615,1.324-1.209,2.604-1.784,3.842c-0.288,0.619-0.569,1.228-0.846,1.822c-0.263,0.602-0.479,1.209-0.714,1.795
				c-0.917,2.354-1.76,4.517-2.521,6.47c-0.363,0.983-0.781,1.89-1.04,2.786c-0.277,0.893-0.537,1.729-0.778,2.505
				c-0.483,1.557-0.895,2.88-1.228,3.952c-0.667,2.147-1.023,3.293-1.023,3.293s0.333-1.15,0.958-3.311
				c0.313-1.08,0.698-2.413,1.151-3.979c0.227-0.783,0.471-1.625,0.73-2.522c0.242-0.904,0.643-1.817,0.987-2.81
				c0.724-1.972,1.526-4.153,2.399-6.531c0.224-0.592,0.429-1.206,0.681-1.813c0.266-0.604,0.536-1.217,0.812-1.842
				c0.551-1.251,1.123-2.547,1.712-3.888c0.59-1.339,1.2-2.722,1.827-4.145c0.674-1.4,1.424-2.814,2.163-4.28
				c1.521-2.909,2.975-6.052,4.842-9.136c3.513-6.295,7.637-12.934,12.268-19.775c4.658-6.821,9.803-13.861,15.431-20.902
				c1.412-1.757,2.835-3.528,4.269-5.313c1.417-1.8,2.962-3.511,4.453-5.288c1.506-1.764,3.021-3.539,4.543-5.322
				c1.569-1.743,3.145-3.495,4.728-5.254c1.595-1.747,3.15-3.549,4.796-5.271c1.638-1.729,3.281-3.467,4.927-5.205
				c3.256-3.516,6.708-6.862,10.071-10.301c3.393-3.407,6.886-6.71,10.312-10.06c3.509-3.258,6.963-6.551,10.469-9.729
				c3.525-3.157,6.973-6.35,10.49-9.373c1.748-1.525,3.484-3.043,5.208-4.549c1.744-1.482,3.476-2.955,5.192-4.415
				c6.862-5.849,13.64-11.329,20.092-16.494c6.481-5.129,12.661-9.915,18.433-14.244c5.762-4.344,11.104-8.243,15.869-11.661
				c4.764-3.422,8.958-6.349,12.429-8.738c3.478-2.383,6.224-4.236,8.114-5.482c1.899-1.246,2.912-1.91,2.912-1.91
				c1.386-0.908,3.246-0.521,4.154,0.864c0.908,1.385,0.521,3.246-0.864,4.153c-0.012,0.009-0.024,0.017-0.036,0.023
				L334.252,311.864z"/>
		</g>
	</g>
	<g>
		<path fill="#FFFFFF" d="M246.47,509.545v6.697c0,8.063-4.032,12.673-11.81,12.673c-7.776,0-11.809-4.608-11.809-12.673v-26.211
			c0-8.064,4.032-12.673,11.809-12.673c7.777,0,11.81,4.607,11.81,12.673v4.896h-7.489v-5.399c0-3.602-1.584-4.97-4.104-4.97
			s-4.104,1.368-4.104,4.97v27.219c0,3.6,1.584,4.896,4.104,4.896c2.521,0,4.104-1.297,4.104-4.896v-7.201H246.47L246.47,509.545z"
			/>
		<path fill="#FFFFFF" d="M258.851,477.935v38.885c0,3.6,1.585,4.896,4.104,4.896c2.521,0,4.104-1.296,4.104-4.896v-38.885h7.489
			v38.38c0,8.064-4.033,12.674-11.81,12.674c-7.777,0-11.809-4.608-11.809-12.674v-38.38H258.851L258.851,477.935z"/>
		<path fill="#FFFFFF" d="M303.636,489.527v1.801c0,5.184-1.584,8.424-5.112,10.08v0.145c4.248,1.656,5.904,5.4,5.904,10.729v4.104
			c0,7.776-4.104,11.953-12.025,11.953h-12.457v-50.404h11.953C300.107,477.935,303.636,481.751,303.636,489.527z M287.866,485.135
			v13.321h3.097c2.952,0,4.752-1.296,4.752-5.328v-2.809c0-3.601-1.224-5.186-4.031-5.186L287.866,485.135L287.866,485.135z
			 M287.866,505.657v15.48h4.536c2.664,0,4.104-1.225,4.104-4.969v-4.393c0-4.682-1.512-6.12-5.111-6.12L287.866,505.657
			L287.866,505.657z"/>
		<path fill="#FFFFFF" d="M317.098,499.177h10.873v7.2h-10.873v14.762h13.683v7.2h-21.604v-50.403h21.604v7.199h-13.683V499.177z"/>
		<path fill="#079948" d="M335.673,477.935h12.529c7.921,0,11.81,4.394,11.81,12.457v25.49c0,8.064-3.889,12.457-11.81,12.457
			h-12.529V477.935z M343.594,485.135v36.004h4.465c2.521,0,4.032-1.297,4.032-4.896v-26.211c0-3.601-1.513-4.896-4.032-4.896
			L343.594,485.135L343.594,485.135z"/>
		<path fill="#079948" d="M372.969,499.177h10.873v7.2h-10.873v14.762h13.683v7.2h-21.604v-50.403h21.604v7.199h-13.683V499.177z"/>
		<path fill="#079948" d="M415.019,490.392v6.554c0,8.063-3.889,12.457-11.81,12.457h-3.744v18.938h-7.921v-50.404h11.665
			C411.13,477.935,415.019,482.327,415.019,490.392z M399.465,485.135V502.2h3.744c2.521,0,3.889-1.151,3.889-4.752v-7.562
			c0-3.601-1.367-4.753-3.889-4.753L399.465,485.135L399.465,485.135z"/>
		<path fill="#079948" d="M418.04,490.031c0-8.064,4.248-12.673,12.024-12.673s12.024,4.607,12.024,12.673v26.211
			c0,8.063-4.248,12.673-12.024,12.673s-12.024-4.608-12.024-12.673V490.031z M425.961,516.746c0,3.6,1.584,4.968,4.104,4.968
			s4.104-1.368,4.104-4.968v-27.219c0-3.602-1.584-4.97-4.104-4.97c-2.521,0-4.104,1.368-4.104,4.97V516.746z"/>
		<path fill="#079948" d="M444.896,477.935h24.481v7.2h-8.281v43.204h-7.921v-43.204h-8.279V477.935z"/>
	</g>
</g>
<g id="Layer_6">
	<path fill="none" stroke="#A7282D" stroke-width="10" stroke-linecap="round" stroke-linejoin="round" stroke-miterlimit="10" d="
		M331.535,313.813"/>
	<path fill="none" stroke="#A7282D" stroke-width="10" stroke-linecap="round" stroke-linejoin="round" stroke-miterlimit="10" d="
		M116.333,523"/>
	<path fill="none" stroke="#A7282D" stroke-width="10" stroke-linecap="round" stroke-linejoin="round" stroke-miterlimit="10" d="
		M258.42,239.667"/>
	<path fill="none" stroke="#F26739" stroke-width="5" stroke-linecap="round" stroke-linejoin="round" stroke-miterlimit="10" d="
		M301.169,296.938"/>
	<path fill="none" stroke="#F26739" stroke-width="5" stroke-linecap="round" stroke-linejoin="round" stroke-miterlimit="10" d="
		M140,457"/>
	<path fill="none" stroke="#F26739" stroke-width="5" stroke-linecap="round" stroke-linejoin="round" stroke-miterlimit="10" d="
		M270.685,262.31"/>
</g>
<g id="Layer_1_1_">
	<g>
		<path fill="#D2EDF3" stroke="#414042" stroke-width="17" stroke-miterlimit="10" d="M459.88,225.332
			c12.851-15.035,21.759-25.904,21.759-25.904l-0.035-0.035c67.707-70.628,43.58-157.17,43.58-157.17S442.45,14.129,368.009,85.797
			l-0.035-0.035c0,0-11.451,9.471-27.104,22.964c-43.831,7.61-163.299,59.235-163.299,59.235l45.745,19.715l33.813,14.572
			l13.557,13.557l20.285,20.283l20.282,20.283l20.283,20.285l20.284,20.283l14.203,14.203l14.57,33.813l19.715,45.744
			C400.309,390.698,453.617,267.335,459.88,225.332z"/>
		<path fill="#999999" d="M257.128,202.248l-33.813-14.572L177.57,167.96c0,0,144.443-62.418,173.958-60.112
			C381.041,110.155,257.128,202.248,257.128,202.248z"/>
		<path fill="#999999" d="M366.022,311.143l14.57,33.813l19.715,45.744c0,0,62.419-144.443,60.113-173.956
			C458.115,187.229,366.022,311.143,366.022,311.143z"/>
		<path fill="#999999" d="M379.322,325.96l8.318,19.301l11.253,26.111c0,0,35.632-82.451,34.313-99.299
			C431.892,255.228,379.322,325.96,379.322,325.96z"/>
		<g>
			<path fill="#F5F5F5" d="M427.379,262.31c0.205-0.225,0.408-0.449,0.613-0.674c27.384-30.169,53.646-62.208,53.646-62.208
				l-0.035-0.035c67.707-70.628,43.58-157.17,43.58-157.17s-82.733-28.094-157.175,43.574l-0.035-0.035
				c0,0-32.306,26.715-62.564,54.341c-0.102,0.093-0.203,0.187-0.305,0.28C318.895,145.379,390.505,174.992,427.379,262.31z"/>
		</g>
		<path fill="#333333" d="M432.15,257.536c-4.146-9.816-8.732-18.897-13.626-27.302c-5.141-8.83-10.617-16.906-16.282-24.285
			c-6.154-8.014-12.526-15.209-18.925-21.643c-7.238-7.279-14.508-13.59-21.528-19.04c-8.621-6.695-16.863-12.086-24.205-16.36
			c-13.096-7.626-23.326-11.707-27.709-13.295c-29.019,26.505-56.055,53.784-50.795,59.045l16.377,16.377l20.283,20.283
			l20.283,20.283l20.283,20.283l20.284,20.285l16.154,16.153C378.266,313.841,405.644,286.683,432.15,257.536z"/>
		<g>
			<path fill="#FAEA69" d="M357.018,170.038l-66.049,66.05l20.283,20.283l67.294-67.292
				C371.307,181.798,364.039,175.488,357.018,170.038z"/>
			<path fill="#F26739" d="M332.813,153.677l-62.126,62.127l20.284,20.283l66.049-66.05
				C348.396,163.343,340.154,157.953,332.813,153.677z"/>
			<path fill="#CB2027" d="M305.104,140.382c-29.019,26.505-56.056,53.785-50.794,59.045l16.377,16.377l62.126-62.127
				C319.717,146.051,309.486,141.97,305.104,140.382z"/>
			<path fill="#FFFFFF" d="M378.546,189.078l-67.294,67.292l20.283,20.285l65.936-65.935
				C391.316,202.707,384.944,195.511,378.546,189.078z"/>
			<path fill="#079948" d="M397.471,210.72l-65.936,65.935l20.284,20.283l61.934-61.933
				C408.613,226.175,403.136,218.099,397.471,210.72z"/>
			<path fill="#016699" d="M427.379,262.31c-4.146-9.818-8.731-18.899-13.626-27.304l-61.934,61.934l16.153,16.153
				C373.494,318.611,400.872,291.454,427.379,262.31z"/>
		</g>
	</g>
	<path fill="#D2EDF3" stroke="#669999" stroke-width="4" stroke-miterlimit="10" d="M462.88,139.039l-34.295-34.295
		c0,0,38.438-30.152,51.442-17.147C493.031,100.601,462.88,139.039,462.88,139.039z"/>
	<path display="none" fill="#F3F4F4" stroke="#58595B" stroke-width="7" stroke-miterlimit="10" d="M444.82,405.86H248.03
		c-9.14,0-9.32-47.352-7.12-95.591c27.78-13.801,65.3-22.271,106.59-22.271c40.38,0,77.15,8.101,104.73,21.36
		C454.57,357.92,454.45,405.86,444.82,405.86z"/>
</g>
<g id="Layer_4">
	<g id="Layer_1_copy">
		<g>
			<g>
				<defs>
					<path id="SVGID_2_" d="M481.604,199.392c67.707-70.628,43.58-157.17,43.58-157.17S442.45,14.128,368.009,85.796l-0.035-0.035
						c0,0-11.451,9.471-27.104,22.964c-43.833,7.613-163.298,59.235-163.298,59.235l45.745,19.715l33.813,14.572l0,0l13.557,13.557
						l20.285,20.283l20.282,20.283l20.283,20.285l20.284,20.282l14.203,14.203l14.57,33.813l19.715,45.744
						c0,0,53.312-123.368,59.572-165.368c12.846-15.031,21.758-25.903,21.758-25.903L481.604,199.392z"/>
				</defs>
				<clipPath id="SVGID_3_">
					<use xlink:href="#SVGID_2_"  overflow="visible"/>
				</clipPath>
				<path opacity="0.2" clip-path="url(#SVGID_3_)" fill="#58595B" enable-background="new    " d="M525.184,42.222
					c0,0-170.821,146.855-254.565,259.226C211.596,380.646,285.131,510.887,372.645,440C444.861,381.506,540.877,151.467,535,60
					C534.409,50.799,525.184,42.222,525.184,42.222z"/>
			</g>
		</g>
	</g>
</g>
</svg>
